# xmcd
#
# Track frame offsets:
#  150
#  18672
#  29697
#  46820
#  60765
#  80469
#  93340
#  117091
#  133384
#  157415
#  169863
#  189160
#  203721
#  217007
#  242471
#  253645
#  277143
#  291478
#  307404
#
# Disc length: 4227 seconds
#
# Revision: 0
# Processed by: cddbd v1.5.2PL0 Copyright (c) Steve Scherf et al.
# Submitted via: AltoMP3_Maker 3.0
#
DISCID=20108113
DTITLE=John Denver - Best collection CD2
DYEAR=1900
DGENRE=
TTITLE0=Poems, prayers and promises
TTITLE1=Its up to you
TTITLE2=Come and let me look in your eyes
TTITLE3=Youre so beautiful'
TTITLE4=My sweet lady
TTITLE5=Love again
TTITLE6=I remember romance
TTITLE7=Leaving on a jet plane
TTITLE8=If ever
TTITLE9=Baby, you look good tonight
TTITLE10=A song for all lovers
TTITLE11=Dreamland express
TTITLE12=Perhaps love
TTITLE13=Flying for me
TTITLE14=Follow me
TTITLE15=Sunshine on my shoulders
TTITLE16=Shanghai breezes
TTITLE17=Two different directions
TTITLE18=I guess he´d rather be in Colorado
EXTD=
EXTT0=
EXTT1=
EXTT2=
EXTT3=
EXTT4=
EXTT5=
EXTT6=
EXTT7=
EXTT8=
EXTT9=
EXTT10=
EXTT11=
EXTT12=
EXTT13=
EXTT14=
EXTT15=
EXTT16=
EXTT17=
EXTT18=
PLAYORDER=
